<svg width="300" height="556" viewBox="0 0 300 556" fill="none" xmlns="http://www.w3.org/2000/svg">
<path d="M196.506 495.685C193.539 495.685 191.133 493.293 191.133 490.342C191.133 487.392 193.539 485 196.506 485C199.473 485 201.878 487.392 201.878 490.342C201.878 493.284 199.473 495.685 196.506 495.685Z" stroke="#04D361" stroke-width="2" stroke-miterlimit="10" stroke-linecap="round" stroke-linejoin="round"/>
<path d="M192.799 494.204L189 497.973" stroke="#04D361" stroke-width="2" stroke-miterlimit="10" stroke-linecap="round" stroke-linejoin="round"/>
<path d="M195.904 95.0052L190.252 100.626" stroke="#04D361" stroke-width="2" stroke-miterlimit="10" stroke-linecap="round" stroke-linejoin="round"/>
<path d="M195.904 100.626L190.252 95.0052" stroke="#04D361" stroke-width="2" stroke-miterlimit="10" stroke-linecap="round" stroke-linejoin="round"/>
<path d="M90.6523 461L85 466.621" stroke="#04D361" stroke-width="2" stroke-miterlimit="10" stroke-linecap="round" stroke-linejoin="round"/>
<path d="M90.6523 466.621L85 461" stroke="#04D361" stroke-width="2" stroke-miterlimit="10" stroke-linecap="round" stroke-linejoin="round"/>
<path d="M23.439 139.619L15.4459 139.619" stroke="#04D361" stroke-width="2" stroke-miterlimit="10" stroke-linecap="round" stroke-linejoin="round"/>
<path d="M19.4434 143.603L19.4434 135.645" stroke="#04D361" stroke-width="2" stroke-miterlimit="10" stroke-linecap="round" stroke-linejoin="round"/>
<path d="M153.858 10.6612C151.181 10.6612 149 8.50186 149 5.8306C149 3.16865 151.172 1 153.858 1C156.535 1 158.715 3.15935 158.715 5.8306C158.706 8.50186 156.535 10.6612 153.858 10.6612Z" stroke="#04D361" stroke-width="2" stroke-miterlimit="10" stroke-linecap="round" stroke-linejoin="round"/>
<path d="M293.858 258.661C291.181 258.661 289 256.502 289 253.831C289 251.169 291.172 249 293.858 249C296.535 249 298.715 251.159 298.715 253.831C298.706 256.502 296.535 258.661 293.858 258.661Z" stroke="#04D361" stroke-width="2" stroke-miterlimit="10" stroke-linecap="round" stroke-linejoin="round"/>
<path d="M5.85772 316.661C3.18085 316.661 1.00004 314.502 1.00004 311.831C1.00004 309.169 3.17149 307 5.85772 307C8.53459 307 10.7154 309.159 10.7154 311.831C10.706 314.502 8.53458 316.661 5.85772 316.661Z" stroke="#04D361" stroke-width="2" stroke-miterlimit="10" stroke-linecap="round" stroke-linejoin="round"/>
<path d="M88.3501 7.74976C88.3501 8.71599 89.1378 9.49927 90.1095 9.49927C91.0811 9.49927 91.8688 8.71599 91.8688 7.74976C91.8688 6.78353 91.0811 6.00024 90.1095 6.00024C89.1378 6.00024 88.3501 6.78353 88.3501 7.74976Z" fill="#9871F5"/>
<path d="M88.3501 19.9703C88.3501 20.9366 89.1378 21.7199 90.1095 21.7199C91.0811 21.7199 91.8688 20.9366 91.8688 19.9703C91.8688 19.0041 91.0811 18.2208 90.1095 18.2208C89.1378 18.2208 88.3501 19.0041 88.3501 19.9703Z" fill="#9871F5"/>
<path d="M88.3501 32.1799C88.3501 33.1462 89.1378 33.9294 90.1095 33.9294C91.0811 33.9294 91.8688 33.1462 91.8688 32.1799C91.8688 31.2137 91.0811 30.4304 90.1095 30.4304C89.1378 30.4304 88.3501 31.2137 88.3501 32.1799Z" fill="#9871F5"/>
<path d="M88.3501 44.4001C88.3501 45.3664 89.1378 46.1497 90.1095 46.1497C91.0811 46.1497 91.8688 45.3664 91.8688 44.4001C91.8688 43.4339 91.0811 42.6506 90.1095 42.6506C89.1378 42.6506 88.3501 43.4339 88.3501 44.4001Z" fill="#9871F5"/>
<path d="M88.3501 56.6107C88.3501 57.5769 89.1378 58.3602 90.1095 58.3602C91.0811 58.3602 91.8688 57.5769 91.8688 56.6107C91.8688 55.6445 91.0811 54.8612 90.1095 54.8612C89.1378 54.8612 88.3501 55.6445 88.3501 56.6107Z" fill="#9871F5"/>
<path d="M88.3501 68.8306C88.3501 69.7968 89.1378 70.5801 90.1095 70.5801C91.0811 70.5801 91.8688 69.7968 91.8688 68.8306C91.8688 67.8643 91.0811 67.0811 90.1095 67.0811C89.1378 67.0811 88.3501 67.8643 88.3501 68.8306Z" fill="#9871F5"/>
<path d="M76.0701 7.74951C76.0701 8.71574 76.8578 9.49903 77.8294 9.49903C78.8011 9.49903 79.5887 8.71574 79.5887 7.74951C79.5887 6.78328 78.8011 6 77.8294 6C76.8578 6 76.0701 6.78328 76.0701 7.74951Z" fill="#9871F5"/>
<path d="M76.0701 19.9702C76.0701 20.9364 76.8578 21.7197 77.8294 21.7197C78.8011 21.7197 79.5887 20.9364 79.5887 19.9702C79.5887 19.004 78.8011 18.2207 77.8294 18.2207C76.8578 18.2207 76.0701 19.004 76.0701 19.9702Z" fill="#9871F5"/>
<path d="M76.0701 32.1802C76.0701 33.1464 76.8578 33.9297 77.8294 33.9297C78.8011 33.9297 79.5887 33.1464 79.5887 32.1802C79.5887 31.2139 78.8011 30.4307 77.8294 30.4307C76.8578 30.4307 76.0701 31.2139 76.0701 32.1802Z" fill="#9871F5"/>
<path d="M76.0701 44.4004C76.0701 45.3666 76.8578 46.1499 77.8294 46.1499C78.8011 46.1499 79.5887 45.3666 79.5887 44.4004C79.5887 43.4342 78.8011 42.6509 77.8294 42.6509C76.8578 42.6509 76.0701 43.4342 76.0701 44.4004Z" fill="#9871F5"/>
<path d="M76.0701 56.6108C76.0701 57.5771 76.8578 58.3603 77.8294 58.3603C78.8011 58.3603 79.5887 57.5771 79.5887 56.6108C79.5887 55.6446 78.8011 54.8613 77.8294 54.8613C76.8578 54.8613 76.0701 55.6446 76.0701 56.6108Z" fill="#9871F5"/>
<path d="M76.0701 68.8306C76.0701 69.7968 76.8578 70.5801 77.8294 70.5801C78.8011 70.5801 79.5887 69.7968 79.5887 68.8306C79.5887 67.8643 78.8011 67.0811 77.8294 67.0811C76.8578 67.0811 76.0701 67.8643 76.0701 68.8306Z" fill="#9871F5"/>
<path d="M63.7809 7.74951C63.7809 8.71574 64.5685 9.49903 65.5402 9.49903C66.5118 9.49903 67.2995 8.71574 67.2995 7.74951C67.2995 6.78328 66.5118 6 65.5402 6C64.5685 6 63.7809 6.78328 63.7809 7.74951Z" fill="#9871F5"/>
<path d="M63.7809 19.9702C63.7809 20.9364 64.5685 21.7197 65.5402 21.7197C66.5118 21.7197 67.2995 20.9364 67.2995 19.9702C67.2995 19.004 66.5118 18.2207 65.5402 18.2207C64.5685 18.2207 63.7809 19.004 63.7809 19.9702Z" fill="#9871F5"/>
<path d="M63.7809 32.1802C63.7809 33.1464 64.5685 33.9297 65.5402 33.9297C66.5118 33.9297 67.2995 33.1464 67.2995 32.1802C67.2995 31.2139 66.5118 30.4307 65.5402 30.4307C64.5685 30.4307 63.7809 31.2139 63.7809 32.1802Z" fill="#9871F5"/>
<path d="M63.7809 44.4004C63.7809 45.3666 64.5685 46.1499 65.5402 46.1499C66.5118 46.1499 67.2995 45.3666 67.2995 44.4004C67.2995 43.4342 66.5118 42.6509 65.5402 42.6509C64.5685 42.6509 63.7809 43.4342 63.7809 44.4004Z" fill="#9871F5"/>
<path d="M63.7809 56.6108C63.7809 57.5771 64.5685 58.3603 65.5402 58.3603C66.5118 58.3603 67.2995 57.5771 67.2995 56.6108C67.2995 55.6446 66.5118 54.8613 65.5402 54.8613C64.5685 54.8613 63.7809 55.6446 63.7809 56.6108Z" fill="#9871F5"/>
<path d="M63.7809 68.8306C63.7809 69.7968 64.5685 70.5801 65.5402 70.5801C66.5118 70.5801 67.2995 69.7968 67.2995 68.8306C67.2995 67.8643 66.5118 67.0811 65.5402 67.0811C64.5685 67.0811 63.7809 67.8643 63.7809 68.8306Z" fill="#9871F5"/>
<path d="M51.5011 7.74951C51.5011 8.71574 52.2888 9.49903 53.2605 9.49903C54.2321 9.49903 55.0198 8.71574 55.0198 7.74951C55.0198 6.78328 54.2321 6 53.2605 6C52.2888 6 51.5011 6.78328 51.5011 7.74951Z" fill="#9871F5"/>
<path d="M51.5011 19.9702C51.5011 20.9364 52.2888 21.7197 53.2605 21.7197C54.2321 21.7197 55.0198 20.9364 55.0198 19.9702C55.0198 19.004 54.2321 18.2207 53.2605 18.2207C52.2888 18.2207 51.5011 19.004 51.5011 19.9702Z" fill="#9871F5"/>
<path d="M51.5011 32.1802C51.5011 33.1464 52.2888 33.9297 53.2605 33.9297C54.2321 33.9297 55.0198 33.1464 55.0198 32.1802C55.0198 31.2139 54.2321 30.4307 53.2605 30.4307C52.2888 30.4307 51.5011 31.2139 51.5011 32.1802Z" fill="#9871F5"/>
<path d="M51.5011 44.4004C51.5011 45.3666 52.2888 46.1499 53.2605 46.1499C54.2321 46.1499 55.0198 45.3666 55.0198 44.4004C55.0198 43.4342 54.2321 42.6509 53.2605 42.6509C52.2888 42.6509 51.5011 43.4342 51.5011 44.4004Z" fill="#9871F5"/>
<path d="M51.5011 56.6108C51.5011 57.5771 52.2888 58.3603 53.2605 58.3603C54.2321 58.3603 55.0198 57.5771 55.0198 56.6108C55.0198 55.6446 54.2321 54.8613 53.2605 54.8613C52.2888 54.8613 51.5011 55.6446 51.5011 56.6108Z" fill="#9871F5"/>
<path d="M51.5011 68.8306C51.5011 69.7968 52.2888 70.5801 53.2605 70.5801C54.2321 70.5801 55.0198 69.7968 55.0198 68.8306C55.0198 67.8643 54.2321 67.0811 53.2605 67.0811C52.2888 67.0811 51.5011 67.8643 51.5011 68.8306Z" fill="#9871F5"/>
<path d="M260.91 444.826C260.91 445.792 261.698 446.576 262.669 446.576C263.641 446.576 264.428 445.792 264.428 444.826C264.428 443.86 263.641 443.077 262.669 443.077C261.698 443.077 260.91 443.86 260.91 444.826Z" fill="#9871F5"/>
<path d="M260.91 457.037C260.91 458.004 261.698 458.787 262.67 458.787C263.641 458.787 264.429 458.004 264.429 457.037C264.429 456.071 263.641 455.288 262.67 455.288C261.698 455.288 260.91 456.071 260.91 457.037Z" fill="#9871F5"/>
<path d="M260.91 469.256C260.91 470.222 261.698 471.005 262.67 471.005C263.641 471.005 264.429 470.222 264.429 469.256C264.429 468.29 263.641 467.506 262.67 467.506C261.698 467.506 260.91 468.29 260.91 469.256Z" fill="#9871F5"/>
<path d="M248.621 444.826C248.621 445.792 249.409 446.575 250.38 446.575C251.352 446.575 252.14 445.792 252.14 444.826C252.14 443.859 251.352 443.076 250.38 443.076C249.409 443.076 248.621 443.859 248.621 444.826Z" fill="#9871F5"/>
<path d="M248.621 457.038C248.621 458.004 249.409 458.787 250.38 458.787C251.352 458.787 252.14 458.004 252.14 457.038C252.14 456.071 251.352 455.288 250.38 455.288C249.409 455.288 248.621 456.071 248.621 457.038Z" fill="#9871F5"/>
<path d="M248.621 469.256C248.621 470.222 249.409 471.005 250.38 471.005C251.352 471.005 252.14 470.222 252.14 469.256C252.14 468.29 251.352 467.506 250.38 467.506C249.409 467.506 248.621 468.29 248.621 469.256Z" fill="#9871F5"/>
<path d="M264.643 127.077C264.643 128.043 265.431 128.826 266.402 128.826C267.374 128.826 268.162 128.043 268.162 127.077C268.162 126.11 267.374 125.327 266.402 125.327C265.431 125.327 264.643 126.11 264.643 127.077Z" fill="#9871F5"/>
<path d="M264.643 139.287C264.643 140.253 265.431 141.036 266.402 141.036C267.374 141.036 268.162 140.253 268.162 139.287C268.162 138.321 267.374 137.537 266.402 137.537C265.431 137.537 264.643 138.321 264.643 139.287Z" fill="#9871F5"/>
<path d="M264.643 151.507C264.643 152.473 265.431 153.256 266.402 153.256C267.374 153.256 268.162 152.473 268.162 151.507C268.162 150.54 267.374 149.757 266.402 149.757C265.431 149.757 264.643 150.54 264.643 151.507Z" fill="#9871F5"/>
<path d="M252.354 127.076C252.354 128.043 253.141 128.826 254.113 128.826C255.085 128.826 255.872 128.043 255.872 127.076C255.872 126.11 255.085 125.327 254.113 125.327C253.141 125.327 252.354 126.11 252.354 127.076Z" fill="#9871F5"/>
<path d="M252.354 139.287C252.354 140.253 253.141 141.036 254.113 141.036C255.085 141.036 255.872 140.253 255.872 139.287C255.872 138.321 255.085 137.537 254.113 137.537C253.141 137.537 252.354 138.321 252.354 139.287Z" fill="#9871F5"/>
<path d="M252.354 151.507C252.354 152.473 253.141 153.257 254.113 153.257C255.085 153.257 255.872 152.473 255.872 151.507C255.872 150.541 255.085 149.758 254.113 149.758C253.141 149.758 252.354 150.541 252.354 151.507Z" fill="#9871F5"/>
<path d="M108.35 554.25C108.35 555.216 109.138 556 110.109 556C111.081 556 111.869 555.216 111.869 554.25C111.869 553.284 111.081 552.501 110.109 552.501C109.138 552.501 108.35 553.284 108.35 554.25Z" fill="#9871F5"/>
<path d="M96.0609 554.251C96.0609 555.217 96.8486 556 97.8202 556C98.7919 556 99.5795 555.217 99.5795 554.251C99.5795 553.284 98.7919 552.501 97.8202 552.501C96.8486 552.501 96.0609 553.284 96.0609 554.251Z" fill="#9871F5"/>
<path d="M83.7809 554.251C83.7809 555.217 84.5685 556 85.5402 556C86.5118 556 87.2995 555.217 87.2995 554.251C87.2995 553.284 86.5118 552.501 85.5402 552.501C84.5685 552.501 83.7809 553.284 83.7809 554.251Z" fill="#9871F5"/>
<path d="M71.4916 554.251C71.4916 555.217 72.2793 556 73.2509 556C74.2226 556 75.0103 555.217 75.0103 554.251C75.0103 553.284 74.2226 552.501 73.2509 552.501C72.2793 552.501 71.4916 553.284 71.4916 554.251Z" fill="#9871F5"/>
<path d="M59.2118 554.251C59.2118 555.217 59.9995 556 60.9711 556C61.9428 556 62.7305 555.217 62.7305 554.251C62.7305 553.284 61.9428 552.501 60.9711 552.501C59.9995 552.501 59.2118 553.284 59.2118 554.251Z" fill="#9871F5"/>
<path d="M46.9226 554.251C46.9226 555.217 47.7103 556 48.6819 556C49.6535 556 50.4412 555.217 50.4412 554.251C50.4412 553.284 49.6535 552.501 48.6819 552.501C47.7103 552.501 46.9226 553.284 46.9226 554.251Z" fill="#9871F5"/>
<path d="M34.6425 554.251C34.6425 555.217 35.4302 556 36.4019 556C37.3735 556 38.1612 555.217 38.1612 554.251C38.1612 553.284 37.3735 552.501 36.4019 552.501C35.4302 552.501 34.6425 553.284 34.6425 554.251Z" fill="#9871F5"/>
<path d="M108.35 542.031C108.35 542.997 109.138 543.78 110.109 543.78C111.081 543.78 111.869 542.997 111.869 542.031C111.869 541.065 111.081 540.281 110.109 540.281C109.138 540.281 108.35 541.065 108.35 542.031Z" fill="#9871F5"/>
<path d="M96.0609 542.031C96.0609 542.997 96.8486 543.78 97.8202 543.78C98.7919 543.78 99.5795 542.997 99.5795 542.031C99.5795 541.065 98.7919 540.281 97.8202 540.281C96.8486 540.281 96.0609 541.065 96.0609 542.031Z" fill="#9871F5"/>
<path d="M83.7809 542.031C83.7809 542.997 84.5685 543.78 85.5402 543.78C86.5118 543.78 87.2995 542.997 87.2995 542.031C87.2995 541.065 86.5118 540.281 85.5402 540.281C84.5685 540.281 83.7809 541.065 83.7809 542.031Z" fill="#9871F5"/>
<path d="M71.4916 542.031C71.4916 542.997 72.2793 543.78 73.2509 543.78C74.2226 543.78 75.0103 542.997 75.0103 542.031C75.0103 541.065 74.2226 540.281 73.2509 540.281C72.2793 540.281 71.4916 541.065 71.4916 542.031Z" fill="#9871F5"/>
<path d="M59.2118 542.031C59.2118 542.997 59.9995 543.78 60.9711 543.78C61.9428 543.78 62.7305 542.997 62.7305 542.031C62.7305 541.065 61.9428 540.281 60.9711 540.281C59.9995 540.281 59.2118 541.065 59.2118 542.031Z" fill="#9871F5"/>
<path d="M46.9226 542.031C46.9226 542.997 47.7103 543.78 48.6819 543.78C49.6535 543.78 50.4412 542.997 50.4412 542.031C50.4412 541.065 49.6535 540.281 48.6819 540.281C47.7103 540.281 46.9226 541.065 46.9226 542.031Z" fill="#9871F5"/>
<path d="M34.6425 542.031C34.6425 542.997 35.4302 543.78 36.4019 543.78C37.3735 543.78 38.1612 542.997 38.1612 542.031C38.1612 541.065 37.3735 540.281 36.4019 540.281C35.4302 540.281 34.6425 541.065 34.6425 542.031Z" fill="#9871F5"/>
<path d="M108.35 529.82C108.35 530.786 109.138 531.569 110.109 531.569C111.081 531.569 111.869 530.786 111.869 529.82C111.869 528.853 111.081 528.07 110.109 528.07C109.138 528.07 108.35 528.853 108.35 529.82Z" fill="#9871F5"/>
<path d="M96.0609 529.82C96.0609 530.786 96.8486 531.569 97.8202 531.569C98.7919 531.569 99.5795 530.786 99.5795 529.82C99.5795 528.854 98.7919 528.07 97.8202 528.07C96.8486 528.07 96.0609 528.854 96.0609 529.82Z" fill="#9871F5"/>
<path d="M83.7809 529.82C83.7809 530.786 84.5685 531.569 85.5402 531.569C86.5118 531.569 87.2995 530.786 87.2995 529.82C87.2995 528.854 86.5118 528.07 85.5402 528.07C84.5685 528.07 83.7809 528.854 83.7809 529.82Z" fill="#9871F5"/>
<path d="M71.4916 529.82C71.4916 530.786 72.2793 531.569 73.2509 531.569C74.2226 531.569 75.0103 530.786 75.0103 529.82C75.0103 528.854 74.2226 528.07 73.2509 528.07C72.2793 528.07 71.4916 528.854 71.4916 529.82Z" fill="#9871F5"/>
<path d="M59.2118 529.82C59.2118 530.786 59.9995 531.569 60.9711 531.569C61.9428 531.569 62.7305 530.786 62.7305 529.82C62.7305 528.854 61.9428 528.07 60.9711 528.07C59.9995 528.07 59.2118 528.854 59.2118 529.82Z" fill="#9871F5"/>
<path d="M46.9226 529.82C46.9226 530.786 47.7103 531.569 48.6819 531.569C49.6535 531.569 50.4412 530.786 50.4412 529.82C50.4412 528.854 49.6535 528.07 48.6819 528.07C47.7103 528.07 46.9226 528.854 46.9226 529.82Z" fill="#9871F5"/>
<path d="M34.6425 529.82C34.6425 530.786 35.4302 531.569 36.4019 531.569C37.3735 531.569 38.1612 530.786 38.1612 529.82C38.1612 528.854 37.3735 528.07 36.4019 528.07C35.4302 528.07 34.6425 528.854 34.6425 529.82Z" fill="#9871F5"/>
<path d="M108.349 517.601C108.349 518.567 109.137 519.35 110.108 519.35C111.08 519.35 111.868 518.567 111.868 517.601C111.868 516.634 111.08 515.851 110.108 515.851C109.137 515.851 108.349 516.634 108.349 517.601Z" fill="#9871F5"/>
<path d="M96.0609 517.6C96.0609 518.566 96.8486 519.35 97.8202 519.35C98.7919 519.35 99.5795 518.566 99.5795 517.6C99.5795 516.634 98.7919 515.851 97.8202 515.851C96.8486 515.851 96.0609 516.634 96.0609 517.6Z" fill="#9871F5"/>
<path d="M83.7809 517.6C83.7809 518.566 84.5685 519.35 85.5402 519.35C86.5118 519.35 87.2995 518.566 87.2995 517.6C87.2995 516.634 86.5118 515.851 85.5402 515.851C84.5685 515.851 83.7809 516.634 83.7809 517.6Z" fill="#9871F5"/>
<path d="M71.4916 517.6C71.4916 518.566 72.2793 519.35 73.2509 519.35C74.2226 519.35 75.0103 518.566 75.0103 517.6C75.0103 516.634 74.2226 515.851 73.2509 515.851C72.2793 515.851 71.4916 516.634 71.4916 517.6Z" fill="#9871F5"/>
<path d="M59.2118 517.6C59.2118 518.566 59.9995 519.35 60.9711 519.35C61.9428 519.35 62.7305 518.566 62.7305 517.6C62.7305 516.634 61.9428 515.851 60.9711 515.851C59.9995 515.851 59.2118 516.634 59.2118 517.6Z" fill="#9871F5"/>
<path d="M46.9226 517.6C46.9226 518.566 47.7103 519.35 48.6819 519.35C49.6535 519.35 50.4412 518.566 50.4412 517.6C50.4412 516.634 49.6535 515.851 48.6819 515.851C47.7103 515.851 46.9226 516.634 46.9226 517.6Z" fill="#9871F5"/>
<path d="M34.6425 517.6C34.6425 518.566 35.4302 519.35 36.4019 519.35C37.3735 519.35 38.1612 518.566 38.1612 517.6C38.1612 516.634 37.3735 515.851 36.4019 515.851C35.4302 515.851 34.6425 516.634 34.6425 517.6Z" fill="#9871F5"/>
</svg>
